<?xml version="1.0" standalone="no"?>
<!DOCTYPE svg PUBLIC "-//W3C//DTD SVG 20010904//EN"
 "http://www.w3.org/TR/2001/REC-SVG-20010904/DTD/svg10.dtd">
<svg version="1.0" xmlns="http://www.w3.org/2000/svg"
 width="500.000000pt" height="500.000000pt" viewBox="0 0 500.000000 500.000000"
 preserveAspectRatio="xMidYMid meet">

<g transform="translate(0.000000,500.000000) scale(0.100000,-0.100000)"
fill="#000000" stroke="none">
<path d="M815 3263 c-130 -67 -305 -252 -279 -295 4 -6 3 -8 -4 -4 -6 4 -19
-16 -31 -49 -23 -60 -27 -90 -11 -80 6 3 7 -1 4 -9 -3 -9 -10 -13 -15 -10 -6
3 -9 -18 -8 -50 2 -54 3 -56 41 -75 26 -12 34 -21 24 -24 -8 -3 -16 -2 -18 2
-2 5 -14 12 -28 16 -24 7 -24 7 -5 -9 16 -12 17 -15 4 -16 -14 0 -15 -8 -7
-56 5 -30 10 -59 11 -64 1 -5 -7 -16 -18 -25 -20 -16 -20 -16 2 -6 23 12 40 0
28 -19 -3 -5 -1 -10 4 -10 22 0 10 -26 -20 -44 -72 -43 -219 -204 -219 -241 0
-4 17 18 39 51 63 96 203 216 225 194 8 -8 2 -17 -19 -33 -53 -38 -150 -135
-168 -169 l-18 -33 23 30 c75 98 191 197 201 171 3 -7 0 -19 -6 -26 -9 -10 -9
-11 1 -6 6 4 17 4 24 0 7 -5 -4 -21 -33 -47 l-44 -39 42 32 c64 47 74 27 16
-34 l-48 -51 45 43 c25 23 49 42 53 42 14 0 7 -24 -15 -49 l-23 -26 27 24 c45
40 51 14 9 -42 -21 -29 -44 -63 -51 -77 -17 -34 -2 -16 44 53 21 31 42 57 47
57 19 0 17 -19 -6 -50 -34 -46 -31 -52 4 -10 35 42 52 33 27 -13 l-18 -32 24
29 c35 41 43 18 13 -36 -14 -23 -25 -47 -24 -53 0 -5 11 11 24 36 13 26 33 49
44 52 19 5 19 3 -5 -45 -14 -28 -23 -52 -21 -54 2 -2 12 14 22 36 10 21 26 47
36 56 10 9 16 20 13 25 -2 4 6 13 18 19 22 11 22 10 4 -4 -11 -9 -16 -16 -12
-16 5 0 3 -6 -3 -13 -6 -8 -7 -18 -3 -22 4 -5 2 -6 -3 -2 -6 3 -11 -2 -11 -11
-1 -9 -4 -26 -9 -37 -4 -11 2 -5 14 13 25 39 45 43 31 6 -15 -40 -12 -42 10
-6 22 36 31 41 27 13 -4 -23 -25 -51 -40 -51 -5 0 -15 -7 -21 -14 -6 -8 -17
-16 -25 -18 -8 -2 -23 -11 -34 -22 -16 -15 -21 -16 -28 -5 -7 11 -9 11 -9 -2
0 -20 -31 -34 -40 -18 -5 6 -9 2 -13 -11 -4 -16 -11 -21 -24 -18 -25 7 -46
-15 -30 -31 8 -8 8 -11 -1 -11 -6 0 -14 10 -16 23 -3 12 -7 31 -9 42 -4 18
-11 -37 -8 -57 3 -19 -32 -6 -37 14 -5 21 -6 21 -12 2 -4 -10 -3 -25 2 -31 7
-9 7 -13 0 -13 -16 0 -26 20 -33 70 l-7 45 1 -53 c2 -49 -4 -64 -18 -42 -3 6
-15 6 -30 0 -20 -8 -28 -5 -45 17 -11 14 -21 35 -21 47 -1 16 -2 17 -6 4 -2
-9 1 -26 7 -37 7 -14 7 -21 1 -21 -13 0 -32 35 -42 75 -6 25 -7 26 -8 7 -1
-13 4 -33 10 -45 12 -21 11 -21 -8 -4 -11 9 -22 15 -25 12 -13 -13 -42 56 -49
115 l-8 65 3 -74 c3 -67 2 -72 -10 -50 -7 13 -13 19 -14 12 -1 -43 128 -129
260 -173 83 -27 219 -37 302 -21 66 13 158 50 158 64 0 5 -4 6 -8 3 -9 -5 -6
113 2 122 4 3 6 -20 6 -51 0 -31 5 -59 10 -62 6 -4 10 11 10 37 0 25 7 53 16
64 14 18 15 18 4 -3 -7 -15 -7 -34 -1 -55 6 -22 10 -26 11 -13 0 11 7 34 14
50 l13 30 0 -32 c0 -18 -4 -30 -9 -27 -4 3 -8 1 -8 -5 0 -5 5 -13 10 -16 6 -3
10 -1 10 4 0 6 8 11 18 12 10 0 12 3 5 6 -7 2 -13 9 -13 15 0 6 7 7 16 4 18
-7 57 21 48 35 -2 4 5 6 16 4 11 -2 18 0 15 6 -10 15 21 22 47 9 l23 -11 -22
17 c-32 23 -29 38 5 29 25 -6 26 -5 8 8 -18 13 -14 43 4 32 4 -3 7 3 6 13 -1
12 5 16 19 14 14 -2 16 0 8 6 -10 6 -10 14 0 35 6 15 16 27 20 27 5 0 5 5 2
10 -3 6 4 14 17 19 13 6 18 10 12 10 -6 1 -11 14 -10 30 1 16 3 29 6 29 21 -1
29 4 24 17 -5 12 5 15 57 17 l64 2 -57 3 c-41 3 -58 8 -58 18 0 10 16 15 53
18 l52 3 -51 2 c-49 2 -51 3 -52 31 0 20 5 31 16 34 15 4 15 5 0 6 -11 1 -18
9 -18 22 0 11 -4 17 -10 14 -5 -3 -10 -1 -10 5 0 34 61 17 165 -44 64 -38 62
-35 45 -47 -11 -8 -9 -9 8 -4 13 4 29 2 36 -4 10 -9 20 -3 41 25 15 19 29 33
32 30 3 -3 -8 -20 -25 -38 -29 -28 -30 -33 -17 -48 8 -9 12 -20 8 -25 -5 -4
-3 -5 4 -1 6 3 14 2 18 -4 4 -6 11 -8 16 -4 5 3 7 9 4 13 -2 5 5 17 18 27 l22
19 -19 -22 c-11 -13 -15 -23 -11 -23 5 0 -2 -11 -16 -26 -21 -22 -21 -24 -4
-18 11 4 29 14 40 23 19 15 19 15 3 -4 -9 -11 -16 -24 -16 -30 1 -5 -17 -20
-38 -32 -21 -13 -34 -23 -28 -23 5 0 32 14 59 31 27 17 43 24 36 15 -7 -9 -10
-16 -6 -16 13 0 -19 -32 -50 -52 -16 -10 -25 -18 -19 -18 5 0 25 11 44 25 l34
25 9 -22 c27 -66 4 -120 -63 -148 -17 -7 -29 -15 -26 -17 8 -9 64 27 90 57 16
20 26 26 26 17 0 -21 -47 -76 -85 -98 -16 -11 -24 -19 -17 -19 7 0 33 19 57
41 49 45 56 44 25 -6 -23 -36 -53 -59 -108 -81 -33 -13 -33 -14 -7 -9 17 3 49
19 73 35 52 36 54 28 5 -23 -31 -33 -33 -37 -11 -22 32 20 72 80 63 95 -3 5
-1 10 4 10 16 0 13 162 -3 241 -18 84 -63 183 -114 250 -48 64 -77 90 -94 85
-7 -1 -10 -1 -5 1 15 9 -4 21 -24 16 -16 -4 -17 -8 -7 -14 9 -6 6 -9 -10 -9
-13 0 -20 -4 -17 -10 9 -15 -8 -12 -31 5 -28 21 -40 18 -19 -5 16 -17 16 -20
3 -15 -35 14 -29 36 15 55 23 11 36 20 29 20 -7 0 -10 5 -7 10 11 17 -11 11
-47 -14 -23 -15 -35 -19 -35 -10 0 7 3 11 7 9 4 -3 16 5 26 16 17 19 17 20 -1
13 -14 -6 -17 -4 -12 8 3 10 -1 18 -13 21 -11 3 -21 -1 -24 -10 -9 -23 -7 -26
9 -13 8 7 15 8 15 2 0 -5 -7 -15 -15 -22 -12 -10 -15 -10 -15 1 0 11 -3 11
-11 -1 -8 -11 -9 -9 -4 10 12 41 11 45 -7 42 -10 -2 -18 2 -18 8 0 6 -8 10
-17 8 -16 -3 -19 9 -24 92 l-5 95 -2 -88 -2 -88 -27 5 c-16 2 -30 5 -33 6 -3
1 -13 2 -22 1 -10 -1 -18 7 -21 21 l-4 23 -2 -22 c-2 -33 -29 -29 -34 5 l-4
27 -2 -26 c-1 -22 -6 -27 -28 -27 -16 0 -31 5 -35 12 -6 8 -8 7 -8 -1 0 -7 -7
-13 -15 -13 -8 0 -15 6 -15 13 0 8 -3 8 -9 -2 -5 -8 -20 -15 -33 -17 -20 -2
-29 8 -58 63 -18 36 -56 88 -83 117 l-49 51 44 -51 c56 -65 114 -172 100 -186
-6 -6 -25 17 -55 64 -25 40 -60 86 -79 103 l-33 30 32 -35 c49 -55 114 -163
101 -171 -7 -4 -4 -10 6 -16 9 -5 18 -19 19 -31 1 -17 6 -21 22 -16 56 18 64
23 60 44 -5 26 11 26 18 -1 4 -16 -1 -24 -29 -35 -46 -19 -80 -22 -76 -6 1 6
-3 12 -9 12 -5 0 -8 4 -4 9 3 5 1 12 -5 16 -6 3 -26 31 -45 60 -19 30 -50 72
-70 94 -20 22 -35 48 -33 58 1 10 -5 29 -14 42 -21 29 -14 43 7 15 9 -12 14
-14 15 -6 0 7 3 11 8 9 4 -3 7 14 7 38 -1 49 11 52 71 15 40 -25 72 -65 114
-141 16 -30 30 -49 30 -43 0 15 -68 125 -96 155 -14 15 -41 35 -60 45 -32 18
-46 44 -23 44 5 0 7 5 4 10 -3 6 4 14 17 19 13 6 17 10 9 10 -29 2 21 41 53
42 30 1 30 1 6 9 -20 7 -16 8 25 10 44 2 47 3 20 10 -26 7 -24 8 19 9 54 1 57
5 11 14 -21 4 -45 -3 -80 -20z m-145 -188 c7 -9 8 -15 2 -15 -5 0 -12 7 -16
15 -3 8 -4 15 -2 15 2 0 9 -7 16 -15z m-46 -30 c3 -8 1 -15 -4 -15 -6 0 -10 7
-10 15 0 8 2 15 4 15 2 0 6 -7 10 -15z m-19 -34 c3 -5 1 -12 -5 -16 -5 -3 -10
1 -10 9 0 18 6 21 15 7z m35 -16 c0 -8 -2 -15 -4 -15 -2 0 -6 7 -10 15 -3 8
-1 15 4 15 6 0 10 -7 10 -15z m-43 -37 c-3 -8 -6 -5 -6 6 -1 11 2 17 5 13 3
-3 4 -12 1 -19z m-61 -35 c-10 -10 -19 5 -10 18 6 11 8 11 12 0 2 -7 1 -15 -2
-18z m34 12 c0 -8 -4 -15 -10 -15 -5 0 -7 7 -4 15 4 8 8 15 10 15 2 0 4 -7 4
-15z m30 -10 c0 -8 -4 -15 -10 -15 -5 0 -7 7 -4 15 4 8 8 15 10 15 2 0 4 -7 4
-15z m120 -37 c48 -60 85 -128 70 -128 -6 0 -17 8 -24 18 -87 108 -106 134
-106 147 0 27 19 16 60 -37z m-199 -1 c-10 -9 -11 -8 -5 6 3 10 9 15 12 12 3
-3 0 -11 -7 -18z m31 1 c-7 -7 -12 -8 -12 -2 0 14 12 26 19 19 2 -3 -1 -11 -7
-17z m28 -3 c0 -8 -4 -15 -10 -15 -5 0 -7 7 -4 15 4 8 8 15 10 15 2 0 4 -7 4
-15z m130 -49 c23 -30 43 -61 44 -68 1 -7 5 -19 10 -26 6 -11 4 -11 -10 -2
-43 27 -116 150 -89 150 2 0 23 -25 45 -54z m-178 15 c-4 -10 -7 -11 -10 -3
-2 7 -8 10 -13 6 -5 -3 -9 -1 -9 5 0 5 9 9 19 8 12 -1 17 -6 13 -16z m21 -6
c-3 -9 -8 -14 -10 -11 -3 3 -2 9 2 15 9 16 15 13 8 -4z m-29 -36 c-3 -5 -10
-7 -15 -3 -5 3 -7 10 -3 15 3 5 10 7 15 3 5 -3 7 -10 3 -15z m171 -15 c15 -19
28 -41 29 -49 1 -7 8 -21 16 -31 13 -16 11 -16 -10 1 -44 37 -69 70 -70 93 0
29 3 28 35 -14z m-141 8 c3 -5 -1 -9 -9 -9 -8 0 -12 4 -9 9 3 4 7 8 9 8 2 0 6
-4 9 -8z m-24 -28 c0 4 5 4 10 1 6 -4 7 -13 1 -23 -6 -11 -5 -25 1 -37 10 -18
9 -17 -23 3 -21 13 -35 30 -35 44 -2 35 6 41 27 22 10 -9 19 -14 19 -10z m478
-12 c2 -12 -1 -22 -7 -22 -6 0 -10 3 -10 8 3 17 -2 32 -10 32 -4 0 -6 -11 -3
-25 2 -14 0 -25 -5 -25 -5 0 -10 6 -11 13 0 6 -3 22 -5 33 -5 19 -2 21 21 15
17 -5 28 -15 30 -29z m-98 2 c0 -8 -5 -14 -12 -14 -6 0 -8 3 -5 7 4 3 2 12 -5
20 -8 11 -7 12 6 7 9 -3 16 -12 16 -20z m235 17 c3 -5 2 -12 -3 -15 -5 -3 -9
1 -9 9 0 17 3 19 12 6z m-275 -21 c-9 -6 -9 -9 -1 -13 8 -4 8 -5 0 -3 -7 1
-13 9 -15 18 -1 11 3 15 13 11 11 -4 12 -8 3 -13z m178 2 c2 -7 -3 -12 -10
-12 -8 0 -15 7 -15 15 0 18 19 15 25 -3z m184 0 c-7 -2 -12 -13 -13 -25 0 -21
-1 -21 -9 -2 -12 28 -12 37 0 30 6 -3 10 -1 10 5 0 6 5 8 12 4 9 -6 9 -9 0
-12z m-154 -27 c0 -14 -5 -25 -9 -25 -5 0 -8 13 -7 29 3 35 16 32 16 -4z
m-378 -18 c0 -20 -25 1 -28 24 -2 23 -2 23 13 5 8 -11 15 -24 15 -29z m406 3
c2 -16 -1 -30 -6 -30 -5 0 -9 16 -8 35 1 41 9 39 14 -5z m84 34 c0 -8 -19 -13
-24 -6 -3 5 1 9 9 9 8 0 15 -2 15 -3z m-383 -16 c4 -7 8 -19 9 -26 2 -10 -1
-10 -12 -1 -7 6 -12 15 -9 19 3 5 -1 11 -7 13 -9 4 -10 6 -1 6 6 1 15 -5 20
-11z m240 -17 c2 -26 -44 -35 -50 -10 -4 17 6 24 38 28 6 0 11 -8 12 -18z m87
-51 c-5 -43 -3 -49 10 -44 9 3 16 2 16 -4 0 -13 -42 -20 -66 -11 -15 6 -16 8
-3 8 19 1 29 29 29 79 0 19 4 31 10 27 5 -3 7 -28 4 -55z m-349 40 c3 -5 2
-10 -4 -10 -5 0 -13 5 -16 10 -3 6 -2 10 4 10 5 0 13 -4 16 -10z m185 0 c-8
-5 -22 -9 -30 -9 -10 0 -8 3 5 9 27 12 43 12 25 0z m200 -30 c0 -13 5 -17 15
-14 8 4 15 2 15 -4 0 -5 -12 -12 -27 -15 -30 -6 -44 0 -27 11 5 4 9 17 8 29
-1 12 3 20 7 17 5 -3 9 -14 9 -24z m-310 10 c0 -5 -2 -10 -4 -10 -3 0 -8 5
-11 10 -3 6 -1 10 4 10 6 0 11 -4 11 -10z m127 -10 c1 -11 -2 -20 -8 -20 -5 0
-9 9 -9 20 0 11 4 20 8 20 4 0 8 -9 9 -20z m93 10 c0 -5 -4 -10 -10 -10 -5 0
-10 5 -10 10 0 6 5 10 10 10 6 0 10 -4 10 -10z m-250 -10 c0 -5 -2 -10 -4 -10
-3 0 -8 5 -11 10 -3 6 -1 10 4 10 6 0 11 -4 11 -10z m66 -15 c1 -8 -2 -13 -7
-9 -5 3 -9 12 -9 21 0 19 13 9 16 -12z m154 10 c0 -11 5 -12 26 -5 31 12 34
12 34 0 0 -5 -22 -12 -50 -16 -27 -4 -50 -10 -50 -15 0 -5 7 -6 15 -3 8 4 15
1 15 -5 0 -6 -9 -11 -20 -11 -13 0 -20 7 -20 20 0 11 7 20 15 20 8 0 15 7 15
15 0 8 5 15 10 15 6 0 10 -7 10 -15z m-120 -17 c0 -12 -3 -18 -7 -14 -11 10
-12 36 -2 36 5 0 9 -10 9 -22z m-60 2 c0 -5 -2 -10 -4 -10 -3 0 -8 5 -11 10
-3 6 -1 10 4 10 6 0 11 -4 11 -10z m-303 -6 c-3 -3 -12 -4 -19 -1 -8 3 -5 6 6
6 11 1 17 -2 13 -5z m-44 -11 c-7 -2 -19 -2 -25 0 -7 3 -2 5 12 5 14 0 19 -2
13 -5z m577 -3 c0 -5 -4 -10 -10 -10 -5 0 -10 5 -10 10 0 6 5 10 10 10 6 0 10
-4 10 -10z m355 0 c-3 -5 -16 -10 -28 -10 -18 0 -19 2 -7 10 20 13 43 13 35 0z
m-575 -10 c0 -5 -2 -10 -4 -10 -3 0 -8 5 -11 10 -3 6 -1 10 4 10 6 0 11 -4 11
-10z m25 0 c3 -5 1 -10 -4 -10 -6 0 -11 5 -11 10 0 6 2 10 4 10 3 0 8 -4 11
-10z m305 0 c0 -5 -6 -10 -12 -11 -10 0 -10 -2 -1 -5 19 -8 4 -32 -16 -27 -25
6 -16 53 10 53 11 0 19 -4 19 -10z m-649 -17 c13 -16 12 -17 -3 -4 -11 8 -28
11 -43 7 -14 -4 -25 -3 -25 2 0 16 58 12 71 -5z m131 -1 c3 -10 0 -19 -6 -19
-6 0 -26 -3 -45 -8 -24 -5 -31 -4 -27 4 4 6 12 8 18 5 7 -5 9 -1 5 9 -4 10 0
17 11 20 32 9 40 7 44 -11z m261 11 c-7 -2 -19 -2 -25 0 -7 3 -2 5 12 5 14 0
19 -2 13 -5z m541 -3 c-15 -15 -124 -23 -124 -9 0 8 13 10 39 6 21 -2 45 -1
52 4 20 12 46 12 33 -1z m-967 -17 c-4 -3 1 -12 11 -20 16 -12 16 -13 -2 -7
-15 6 -17 3 -12 -14 4 -11 2 -23 -3 -27 -7 -3 -8 0 -5 9 4 9 1 16 -6 16 -9 0
-9 4 1 17 12 15 12 16 -5 10 -16 -6 -17 -5 -6 8 7 8 17 15 23 15 6 0 7 -3 4
-7z m952 -7 c-14 -13 -70 -36 -64 -26 4 6 17 15 29 20 22 9 42 13 35 6z m41
-10 c0 -9 -61 -48 -67 -43 -3 3 10 15 28 26 36 22 39 23 39 17z m-830 -17 c0
-6 -7 -9 -15 -5 -8 3 -15 1 -15 -5 0 -6 -6 -9 -14 -6 -8 3 -16 1 -18 -5 -3 -7
-10 -8 -18 -3 -10 6 -5 12 21 21 44 16 59 17 59 3z m850 1 c0 -5 -5 -10 -11
-10 -5 0 -7 5 -4 10 3 6 8 10 11 10 2 0 4 -4 4 -10z m-830 -19 c0 -5 -17 -15
-37 -22 -21 -6 -43 -15 -49 -20 -6 -5 -14 -6 -17 -2 -4 3 -7 1 -7 -5 0 -15 2
-15 37 0 15 6 37 13 48 15 19 4 19 3 0 -11 -11 -8 -23 -12 -27 -10 -5 3 -8 0
-8 -6 0 -7 -7 -10 -15 -6 -8 3 -15 1 -15 -3 0 -5 -6 -11 -13 -14 -9 -3 -12 4
-11 22 2 42 3 43 19 37 8 -3 15 -1 15 5 0 6 7 9 15 5 8 -3 15 -1 15 5 0 6 7 9
15 5 8 -3 15 -1 15 4 0 6 5 10 10 10 6 0 10 -4 10 -9z m825 -11 c-3 -5 -16
-15 -28 -21 -19 -9 -19 -8 3 10 28 23 34 26 25 11z m22 -17 c1 -10 -9 -26 -22
-35 -18 -14 -23 -15 -21 -3 2 11 34 55 40 55 1 0 2 -8 3 -17z m-834 -26 c-3
-4 3 -18 14 -29 10 -12 14 -23 8 -25 -5 -2 -17 -8 -25 -13 -23 -14 -5 -23 22
-10 21 10 22 10 4 -4 -10 -8 -15 -20 -11 -26 6 -9 10 -9 17 1 8 11 9 10 5 -3
-9 -26 4 -29 25 -5 l19 22 -17 -27 c-9 -16 -19 -28 -23 -28 -4 0 -21 -13 -39
-29 -21 -20 -28 -32 -21 -37 7 -4 19 3 28 15 17 22 17 22 35 3 17 -19 16 -21
-4 -35 -14 -10 -18 -17 -10 -22 6 -4 21 1 33 12 l22 18 -19 -23 c-11 -12 -24
-22 -30 -21 -25 3 -37 -2 -31 -12 4 -6 14 -8 24 -4 12 5 13 4 4 -6 -10 -10
-16 -9 -28 1 -16 13 -15 15 1 27 10 7 14 13 8 13 -5 0 -1 7 9 14 12 10 15 16
7 21 -6 4 -22 -5 -35 -19 -29 -31 -40 -34 -25 -6 11 21 1 27 -17 9 -7 -7 -10
-4 -9 13 1 15 -4 22 -14 20 -10 -1 -9 2 4 13 11 8 24 15 30 15 6 0 6 4 -1 11
-8 8 -17 8 -31 0 -29 -16 -36 -14 -18 5 9 8 13 20 10 25 -4 6 -10 5 -17 -3 -7
-7 -11 -11 -10 -9 2 2 -2 11 -9 18 -7 8 -12 23 -13 33 -1 16 2 17 19 8 20 -10
20 -10 4 8 -14 16 -14 21 -2 32 8 7 19 10 24 7 6 -3 10 -2 10 3 0 19 33 22 51
6 11 -10 19 -12 19 -6 0 6 -6 13 -12 16 -10 5 -10 7 -1 12 7 3 9 13 6 22 -4
14 -3 14 5 2 6 -8 8 -18 5 -23z m507 3 c0 -5 -4 -10 -10 -10 -5 0 -10 5 -10
10 0 6 5 10 10 10 6 0 10 -4 10 -10z m30 6 c0 -3 -4 -8 -10 -11 -5 -3 -10 -1
-10 4 0 6 5 11 10 11 6 0 10 -2 10 -4z m-684 -51 c-4 -38 -12 -39 -12 -1 0 19
4 32 8 30 3 -2 5 -16 4 -29z m624 15 c0 -5 -2 -10 -4 -10 -3 0 -8 5 -11 10 -3
6 -1 10 4 10 6 0 11 -4 11 -10z m30 0 c0 -5 -4 -10 -10 -10 -5 0 -10 5 -10 10
0 6 5 10 10 10 6 0 10 -4 10 -10z m17 -37 c-3 -10 -5 -2 -5 17 0 19 2 27 5 18
2 -10 2 -26 0 -35z m349 12 c-3 -20 -22 -38 -42 -41 -12 -2 -8 6 12 27 32 34
33 34 30 14z m-416 -5 c0 -5 -2 -10 -4 -10 -3 0 -8 5 -11 10 -3 6 -1 10 4 10
6 0 11 -4 11 -10z m25 0 c3 -5 1 -10 -4 -10 -6 0 -11 5 -11 10 0 6 2 10 4 10
3 0 8 -4 11 -10z m22 -12 c-3 -8 -6 -5 -6 6 -1 11 2 17 5 13 3 -3 4 -12 1 -19z
m-404 -23 c-3 -9 -8 -14 -10 -11 -3 3 -2 9 2 15 9 16 15 13 8 -4z m367 7 c0
-4 -9 -8 -20 -9 -11 -1 -20 2 -20 5 0 4 9 8 20 9 11 1 20 -2 20 -5z m17 -14
c-3 -8 -6 -5 -6 6 -1 11 2 17 5 13 3 -3 4 -12 1 -19z m48 2 c3 -5 1 -10 -4
-10 -6 0 -11 5 -11 10 0 6 2 10 4 10 3 0 8 -4 11 -10z m-192 -35 c-7 -21 -12
-19 -10 4 0 11 5 18 9 15 4 -3 5 -11 1 -19z m124 3 c-3 -8 -6 -5 -6 6 -1 11 2
17 5 13 3 -3 4 -12 1 -19z m-47 -29 c0 -11 5 -17 10 -14 6 3 10 1 10 -5 0 -6
5 -8 10 -5 6 3 10 1 10 -5 0 -7 -3 -10 -7 -8 -5 2 -25 10 -45 18 -21 8 -38 18
-38 22 0 5 9 4 20 -2 16 -9 20 -8 20 5 0 8 -5 14 -11 13 -6 -2 -14 3 -16 10
-4 11 -1 12 16 3 11 -7 21 -21 21 -32z m100 25 c0 -8 -4 -12 -10 -9 -5 3 -10
10 -10 16 0 5 5 9 10 9 6 0 10 -7 10 -16z m-23 -36 c-3 -8 -6 -5 -6 6 -1 11 2
17 5 13 3 -3 4 -12 1 -19z m-397 9 c0 -2 -10 -12 -22 -23 l-23 -19 19 23 c18
21 26 27 26 19z m284 -20 c9 9 7 -12 -3 -40 -8 -21 -6 -26 15 -37 13 -8 24
-17 24 -22 0 -13 -17 -9 -34 7 -9 10 -17 11 -21 5 -3 -6 1 -13 9 -16 19 -7 21
-30 4 -40 -6 -4 -8 -3 -4 4 3 6 -1 15 -10 20 -15 9 -16 13 -1 56 9 25 12 46 7
46 -4 0 -10 -3 -13 -7 -2 -5 -3 -3 -1 3 1 6 -3 17 -9 24 -10 10 -8 10 9 2 12
-6 24 -8 28 -5z m-53 -11 c5 3 9 0 9 -6 0 -15 -23 -7 -26 8 -1 7 0 8 3 2 2 -5
9 -8 14 -4z m161 0 c7 4 8 2 4 -4 -11 -18 -26 -14 -25 6 0 10 3 12 6 4 2 -6
10 -9 15 -6z m-85 -15 c-4 -15 2 -22 24 -30 16 -5 29 -15 29 -21 0 -6 -4 -8
-10 -5 -5 3 -10 -2 -11 -12 0 -14 -2 -15 -6 -3 -9 21 -30 40 -37 33 -3 -4 -6
-2 -6 3 0 17 12 54 17 54 3 0 3 -9 0 -19z m20 -13 c-3 -8 -6 -5 -6 6 -1 11 2
17 5 13 3 -3 4 -12 1 -19z m-104 -3 c8 -8 17 -11 21 -8 3 4 6 1 6 -5 0 -7 -4
-12 -9 -12 -14 0 -58 39 -44 40 6 0 18 -7 26 -15z m-25 -14 c21 -18 21 -19 5
-67 -9 -27 -17 -51 -19 -53 -7 -8 -34 22 -34 38 1 14 2 14 14 -2 13 -17 14
-16 20 3 3 11 6 23 7 28 0 4 5 13 11 19 7 9 6 14 -5 19 -9 3 -18 12 -21 20 -7
18 -3 18 22 -5z m-18 -22 c11 -7 12 -12 3 -15 -7 -3 -9 -12 -6 -20 3 -8 0 -14
-7 -14 -8 0 -10 9 -6 25 4 16 2 25 -5 25 -7 0 -9 -3 -6 -7 4 -3 2 -12 -4 -20
-6 -7 -8 -13 -4 -13 4 0 2 -6 -4 -14 -9 -10 -8 -16 4 -26 17 -14 20 -30 5 -30
-5 0 -11 8 -11 18 -1 16 -2 16 -6 0 -2 -10 -9 -18 -14 -18 -12 0 -12 26 1 48
5 9 14 29 20 45 10 29 17 32 40 16z m57 -20 c-3 -12 0 -22 9 -26 16 -6 19 -29
4 -38 -6 -4 -10 -3 -9 2 3 20 -2 34 -11 28 -5 -3 -7 -12 -4 -19 3 -7 -1 -16
-9 -19 -13 -5 -12 2 1 44 15 48 30 69 19 28z m-242 -39 c-3 -5 -11 -10 -16
-10 -6 0 -7 5 -4 10 3 6 11 10 16 10 6 0 7 -4 4 -10z m111 -6 c-3 -9 -6 -18
-6 -20 0 -3 -4 -3 -10 1 -11 7 -2 35 12 35 6 0 7 -7 4 -16z m99 -103 c-3 -5
-1 -12 5 -16 5 -3 10 1 10 9 0 9 4 16 9 16 5 0 7 -9 4 -20 -4 -15 -11 -19 -25
-14 -15 4 -18 3 -13 -6 5 -9 4 -11 -3 -6 -9 5 -9 13 -2 27 6 10 13 19 16 19 3
0 3 -4 -1 -9z m-148 -114 c-1 -23 -6 -42 -12 -42 -5 0 -15 -4 -21 -8 -7 -4
-18 1 -25 10 -10 12 -10 14 -1 9 13 -8 16 4 5 20 -5 5 -1 2 8 -8 15 -15 18
-16 23 -3 3 8 2 22 -1 32 -5 11 -3 14 6 8 10 -6 11 -2 6 15 -5 14 -3 20 3 16
6 -3 9 -25 9 -49z m-124 21 c-8 -11 -10 -33 -3 -40 7 -8 5 -56 -2 -52 -4 3 -6
9 -3 14 3 5 1 11 -3 14 -16 10 -3 76 15 76 3 0 1 -6 -4 -12z m78 -5 c13 -16
12 -17 -3 -4 -10 7 -18 15 -18 17 0 8 8 3 21 -13z m-166 -32 c2 -11 -1 -21 -7
-21 -6 0 -3 -10 8 -22 19 -23 19 -23 -2 -5 -12 10 -20 27 -18 40 1 12 3 26 3
31 2 15 11 1 16 -23z m40 20 c3 -5 2 -12 -3 -15 -5 -3 -9 1 -9 9 0 17 3 19 12
6z m-89 -26 c-2 -7 1 -18 7 -24 9 -9 8 -11 -4 -6 -9 3 -16 17 -16 30 0 14 4
22 9 19 5 -3 7 -12 4 -19z m180 -21 c2 -12 0 -14 -9 -5 -6 6 -12 18 -13 27 -2
12 0 14 9 5 6 -6 12 -18 13 -27z m-216 1 c11 -13 10 -14 -4 -9 -9 3 -16 10
-16 15 0 13 6 11 20 -6z m124 -4 c14 -15 15 -21 4 -27 -7 -4 -10 -3 -5 1 4 5
0 17 -10 27 -9 10 -14 18 -11 18 3 0 13 -9 22 -19z m-159 -2 c11 -17 -1 -21
-15 -4 -8 9 -8 15 -2 15 6 0 14 -5 17 -11z"/>
<path d="M495 2772 c1 -13 9 -30 17 -39 14 -14 16 -14 14 -1 -1 9 -9 26 -17
39 l-16 23 2 -22z"/>
<path d="M1529 2503 c-13 -16 -12 -17 4 -4 9 7 17 15 17 17 0 8 -8 3 -21 -13z"/>
<path d="M670 2472 c0 -7 -11 -14 -25 -18 -30 -7 -31 -12 -7 -30 23 -18 37
-18 23 0 -9 11 -8 15 5 20 23 9 31 7 14 -4 -27 -17 -2 -22 29 -5 32 16 43 32
15 21 -10 -4 -25 1 -35 10 -11 10 -19 12 -19 6z"/>
<path d="M690 2411 c0 -7 -4 -10 -9 -7 -5 4 -12 0 -14 -6 -4 -10 -7 -10 -15 0
-9 14 -42 6 -42 -10 0 -6 8 -7 17 -4 9 4 20 1 24 -6 6 -9 13 -8 28 7 12 10 24
16 27 12 9 -9 -5 -27 -22 -27 -8 0 -12 -4 -9 -10 9 -14 21 -12 39 6 9 8 16 12
16 7 0 -5 -14 -21 -31 -36 -18 -15 -28 -31 -24 -35 4 -4 10 -1 12 6 3 6 10 9
15 6 6 -4 8 -3 5 3 -4 6 5 15 18 21 32 15 31 22 -5 57 -16 16 -30 23 -30 16z"/>
<path d="M740 2306 c0 -2 8 -10 18 -17 15 -13 16 -12 3 4 -13 16 -21 21 -21
13z"/>
<path d="M1569 2423 c-13 -16 -12 -17 4 -4 9 7 17 15 17 17 0 8 -8 3 -21 -13z"/>
<path d="M1005 3273 c46 -24 94 -73 126 -128 16 -27 29 -45 29 -39 0 10 -45
82 -72 115 -18 22 -88 69 -102 69 -6 -1 3 -8 19 -17z"/>
<path d="M1027 3209 c22 -24 50 -60 62 -79 12 -19 21 -31 21 -25 0 17 -62 99
-94 124 -25 20 -23 15 11 -20z"/>
<path d="M983 3188 c28 -29 58 -62 65 -73 7 -11 6 -6 -2 11 -13 26 -97 114
-111 114 -2 0 19 -24 48 -52z"/>
<path d="M861 3226 c2 -2 15 -9 29 -15 24 -11 24 -11 6 3 -16 13 -49 24 -35
12z"/>
<path d="M808 3203 c7 -3 16 -2 19 1 4 3 -2 6 -13 5 -11 0 -14 -3 -6 -6z"/>
<path d="M947 3170 c18 -19 46 -60 62 -90 17 -30 31 -50 31 -45 0 20 -59 111
-91 140 l-34 30 32 -35z"/>
<path d="M923 3130 c19 -25 46 -67 60 -95 14 -27 26 -46 27 -42 1 18 -51 105
-85 142 l-37 40 35 -45z"/>
<path d="M830 3156 c0 -2 8 -10 18 -17 15 -13 16 -12 3 4 -13 16 -21 21 -21
13z"/>
<path d="M827 3093 c27 -26 57 -59 66 -73 16 -23 17 -23 6 -2 -14 30 -77 100
-101 113 -11 6 2 -11 29 -38z"/>
<path d="M877 3120 c4 -9 21 -34 36 -57 16 -23 39 -68 53 -100 13 -32 24 -51
24 -42 0 23 -65 148 -96 184 -14 17 -22 23 -17 15z"/>
<path d="M1110 3085 c0 -5 5 -17 10 -25 5 -8 10 -10 10 -5 0 6 -5 17 -10 25
-5 8 -10 11 -10 5z"/>
<path d="M710 3078 c3 -2 30 -26 60 -53 54 -49 54 -49 15 -6 -22 23 -49 47
-60 53 -11 6 -18 9 -15 6z"/>
<path d="M1171 3044 c0 -11 3 -14 6 -6 3 7 2 16 -1 19 -3 4 -6 -2 -5 -13z"/>
<path d="M1081 3035 c1 -19 18 -51 18 -35 0 8 -4 22 -9 30 -5 8 -9 11 -9 5z"/>
<path d="M1131 3024 c0 -11 3 -14 6 -6 3 7 2 16 -1 19 -3 4 -6 -2 -5 -13z"/>
<path d="M1181 3004 c0 -11 3 -14 6 -6 3 7 2 16 -1 19 -3 4 -6 -2 -5 -13z"/>
<path d="M1142 2980 c0 -14 2 -19 5 -12 2 6 2 18 0 25 -3 6 -5 1 -5 -13z"/>
<path d="M916 2977 c3 -10 9 -15 12 -12 3 3 0 11 -7 18 -10 9 -11 8 -5 -6z"/>
<path d="M1102 2960 c0 -14 2 -19 5 -12 2 6 2 18 0 25 -3 6 -5 1 -5 -13z"/>
<path d="M1061 2944 c0 -11 3 -14 6 -6 3 7 2 16 -1 19 -3 4 -6 -2 -5 -13z"/>
<path d="M930 2945 c0 -5 5 -17 10 -25 5 -8 10 -10 10 -5 0 6 -5 17 -10 25 -5
8 -10 11 -10 5z"/>
<path d="M1021 2934 c0 -11 3 -14 6 -6 3 7 2 16 -1 19 -3 4 -6 -2 -5 -13z"/>
<path d="M1153 2905 c0 -27 2 -38 4 -22 2 15 2 37 0 50 -2 12 -4 0 -4 -28z"/>
<path d="M1760 2920 c0 -29 2 -30 45 -30 l45 0 0 -115 0 -115 35 0 35 0 0 115
0 115 45 0 c43 0 45 1 45 30 l0 30 -125 0 -125 0 0 -30z"/>
<path d="M2040 2805 l0 -145 115 0 115 0 0 30 0 30 -81 0 -80 0 3 28 c3 26 5
27 71 30 63 3 67 4 67 27 0 23 -4 24 -67 27 -66 3 -68 4 -71 31 l-3 27 80 0
81 0 0 30 0 30 -115 0 -115 0 0 -145z"/>
<path d="M2381 2933 c-68 -33 -95 -114 -63 -187 37 -82 126 -110 212 -66 45
23 48 30 22 54 -17 15 -22 15 -48 1 -41 -21 -71 -19 -99 10 -72 71 21 187 104
129 21 -15 24 -15 43 4 25 24 17 39 -28 58 -44 19 -101 17 -143 -3z"/>
<path d="M2610 2805 l0 -145 35 0 35 0 0 55 0 55 60 0 60 0 0 -55 0 -55 40 0
40 0 0 145 0 145 -40 0 -40 0 0 -60 0 -60 -60 0 -60 0 0 60 0 60 -35 0 -35 0
0 -145z"/>
<path d="M2910 2943 c0 -4 21 -70 46 -145 l46 -138 37 0 37 0 24 90 c12 50 26
92 29 95 4 2 18 -39 31 -91 l24 -94 37 0 37 0 46 138 c25 75 46 140 46 145 0
4 -15 7 -34 7 l-34 0 -21 -82 c-38 -144 -34 -142 -65 -24 l-29 107 -36 -3 -36
-3 -25 -97 c-13 -54 -27 -98 -30 -98 -3 0 -16 44 -30 98 l-25 97 -38 3 c-20 2
-37 0 -37 -5z"/>
<path d="M3380 2805 l0 -145 121 0 120 0 -3 28 c-3 27 -4 27 -80 30 l-78 3 0
29 0 30 70 0 c68 0 70 1 70 25 0 24 -2 25 -70 25 l-70 0 0 30 0 30 75 0 75 0
0 30 0 30 -115 0 -115 0 0 -145z"/>
<path d="M3741 2908 c-10 -24 -37 -85 -60 -137 -22 -52 -41 -98 -41 -103 0 -4
15 -8 33 -8 26 0 36 6 45 25 11 23 17 25 75 25 58 0 65 -2 75 -25 9 -20 19
-25 47 -25 19 0 35 3 35 7 0 4 -26 69 -57 145 l-58 138 -38 0 c-35 0 -39 -3
-56 -42z m88 -125 c1 -9 -13 -13 -39 -13 -44 0 -43 -6 -9 78 l11 27 18 -40
c10 -22 19 -46 19 -52z"/>
<path d="M3960 2943 c1 -4 24 -69 53 -143 l53 -135 40 -3 39 -2 56 145 57 145
-38 0 c-37 0 -39 -1 -56 -52 -9 -29 -26 -78 -37 -108 l-20 -54 -36 104 -36
105 -37 3 c-21 2 -38 0 -38 -5z"/>
<path d="M4290 2805 l0 -145 115 0 115 0 0 30 0 30 -80 0 -80 0 0 30 0 30 70
0 c68 0 70 1 70 25 0 24 -2 25 -70 25 l-70 0 0 30 0 30 75 0 75 0 0 30 0 30
-110 0 -110 0 0 -145z"/>
<path d="M857 2905 c9 -19 18 -33 21 -31 4 5 -26 66 -33 66 -3 0 3 -16 12 -35z"/>
<path d="M1113 2895 c0 -22 2 -30 4 -17 2 12 2 30 0 40 -3 9 -5 -1 -4 -23z"/>
<path d="M1072 2895 c0 -16 2 -22 5 -12 2 9 2 23 0 30 -3 6 -5 -1 -5 -18z"/>
<path d="M1032 2890 c0 -14 2 -19 5 -12 2 6 2 18 0 25 -3 6 -5 1 -5 -13z"/>
<path d="M961 2854 c0 -11 3 -14 6 -6 3 7 2 16 -1 19 -3 4 -6 -2 -5 -13z"/>
<path d="M880 2855 c0 -5 5 -17 10 -25 5 -8 10 -10 10 -5 0 6 -5 17 -10 25 -5
8 -10 11 -10 5z"/>
<path d="M1001 2844 c0 -11 3 -14 6 -6 3 7 2 16 -1 19 -3 4 -6 -2 -5 -13z"/>
<path d="M1380 2689 c-28 -14 -32 -19 -18 -24 11 -4 27 1 43 13 34 27 19 33
-25 11z"/>
<path d="M1288 2523 c6 -2 18 -2 25 0 6 3 1 5 -13 5 -14 0 -19 -2 -12 -5z"/>
<path d="M1338 2493 c6 -2 18 -2 25 0 6 3 1 5 -13 5 -14 0 -19 -2 -12 -5z"/>
<path d="M364 2447 c-92 -68 -164 -162 -179 -232 -4 -19 2 -12 14 18 29 71 94
152 164 204 69 50 73 53 65 53 -3 0 -32 -19 -64 -43z"/>
<path d="M434 2446 c-87 -59 -204 -191 -204 -230 0 -6 13 12 29 39 36 62 109
137 179 183 45 30 59 42 49 42 -1 0 -25 -15 -53 -34z"/>
<path d="M1398 2463 c7 -3 16 -2 19 1 4 3 -2 6 -13 5 -11 0 -14 -3 -6 -6z"/>
<path d="M1323 2453 c9 -2 25 -2 35 0 9 3 1 5 -18 5 -19 0 -27 -2 -17 -5z"/>
<path d="M2017 2420 c-52 -41 -40 -124 22 -150 33 -13 82 -3 89 20 3 9 -1 11
-14 5 -41 -16 -51 -15 -77 5 -66 52 -1 150 73 110 13 -7 21 -7 25 0 7 12 -35
30 -69 30 -13 0 -35 -9 -49 -20z"/>
<path d="M2280 2350 c0 -53 4 -90 10 -90 6 0 10 14 10 30 0 27 3 30 30 30 24
0 35 -7 48 -30 9 -16 23 -30 30 -30 10 0 9 8 -4 30 -17 27 -17 30 -1 48 24 26
21 68 -5 86 -13 9 -43 16 -70 16 l-48 0 0 -90z m101 60 c21 -12 25 -40 7 -58
-7 -7 -29 -12 -50 -12 -38 0 -38 0 -38 40 0 38 2 40 31 40 17 0 39 -5 50 -10z"/>
<path d="M2570 2350 l0 -90 65 0 c78 0 88 18 13 22 -49 3 -53 5 -56 31 -3 26
-2 27 42 27 58 0 61 18 4 22 -39 3 -43 6 -46 31 -3 26 -2 27 47 27 28 0 51 5
51 10 0 6 -27 10 -60 10 l-60 0 0 -90z"/>
<path d="M2869 2373 c-48 -106 -50 -113 -35 -113 8 0 16 9 19 20 4 17 14 20
55 20 40 0 52 -4 65 -22 8 -13 18 -20 21 -17 10 10 -67 179 -82 179 -7 0 -27
-30 -43 -67z m49 -41 c-41 -5 -44 2 -23 46 l18 37 17 -40 17 -40 -29 -3z"/>
<path d="M3120 2430 c0 -5 11 -10 25 -10 25 0 25 -1 25 -80 0 -64 3 -80 15
-80 12 0 15 16 15 80 l0 80 30 0 c17 0 30 5 30 10 0 6 -30 10 -70 10 -40 0
-70 -4 -70 -10z"/>
<path d="M3390 2350 c0 -53 4 -90 10 -90 6 0 10 37 10 90 0 53 -4 90 -10 90
-6 0 -10 -37 -10 -90z"/>
<path d="M3603 2430 c-28 -11 -43 -40 -43 -83 0 -76 105 -113 156 -54 65 76
-17 176 -113 137z m92 -35 c14 -13 25 -33 25 -45 0 -26 -43 -70 -68 -70 -31 0
-72 38 -72 68 0 33 36 72 67 72 13 0 35 -11 48 -25z"/>
<path d="M3880 2350 c0 -72 3 -90 15 -90 10 0 15 16 17 66 l3 66 48 -66 c27
-36 53 -66 58 -66 5 0 9 41 9 90 0 104 -18 123 -22 24 l-3 -66 -48 66 c-67 91
-77 88 -77 -24z"/>
<path d="M4208 2429 c-21 -12 -24 -52 -5 -66 6 -6 26 -15 42 -20 18 -6 31 -17
33 -30 4 -27 -26 -34 -67 -17 -25 11 -31 11 -31 0 0 -14 41 -36 68 -36 29 0
62 29 62 56 0 20 -9 29 -44 44 -24 10 -46 23 -50 28 -10 17 22 35 49 28 31 -8
54 2 34 15 -19 12 -70 11 -91 -2z"/>
<path d="M1408 2423 c7 -3 16 -2 19 1 4 3 -2 6 -13 5 -11 0 -14 -3 -6 -6z"/>
<path d="M1475 2400 c-13 -6 -15 -9 -5 -9 8 0 22 4 30 9 18 12 2 12 -25 0z"/>
<path d="M1428 2383 c7 -3 16 -2 19 1 4 3 -2 6 -13 5 -11 0 -14 -3 -6 -6z"/>
<path d="M458 2302 c-36 -37 -77 -91 -92 -119 -38 -77 -31 -79 9 -3 20 36 63
93 97 127 35 35 60 63 57 63 -3 0 -35 -30 -71 -68z"/>
<path d="M1495 2360 c-13 -6 -15 -9 -5 -9 8 0 22 4 30 9 18 12 2 12 -25 0z"/>
<path d="M1448 2343 c7 -3 16 -2 19 1 4 3 -2 6 -13 5 -11 0 -14 -3 -6 -6z"/>
<path d="M1333 2333 c15 -2 39 -2 55 0 15 2 2 4 -28 4 -30 0 -43 -2 -27 -4z"/>
<path d="M1258 2303 c6 -2 18 -2 25 0 6 3 1 5 -13 5 -14 0 -19 -2 -12 -5z"/>
<path d="M1468 2303 c7 -3 16 -2 19 1 4 3 -2 6 -13 5 -11 0 -14 -3 -6 -6z"/>
<path d="M1358 2293 c18 -2 45 -2 60 0 15 2 0 4 -33 4 -33 0 -45 -2 -27 -4z"/>
<path d="M455 2239 c-26 -32 -65 -101 -65 -116 0 -4 14 17 31 47 16 30 39 65
51 77 12 13 19 23 16 23 -4 0 -18 -14 -33 -31z"/>
<path d="M1278 2263 c7 -3 16 -2 19 1 4 3 -2 6 -13 5 -11 0 -14 -3 -6 -6z"/>
<path d="M1498 2263 c7 -3 16 -2 19 1 4 3 -2 6 -13 5 -11 0 -14 -3 -6 -6z"/>
<path d="M1363 2253 c20 -2 54 -2 75 0 20 2 3 4 -38 4 -41 0 -58 -2 -37 -4z"/>
<path d="M1609 2224 l-24 -27 28 18 c15 9 27 21 27 26 0 14 -5 11 -31 -17z"/>
<path d="M549 2223 c-13 -16 -12 -17 4 -4 9 7 17 15 17 17 0 8 -8 3 -21 -13z"/>
<path d="M1238 2233 c7 -3 16 -2 19 1 4 3 -2 6 -13 5 -11 0 -14 -3 -6 -6z"/>
<path d="M482 2203 c-29 -42 -54 -94 -48 -101 3 -3 6 -1 6 4 0 6 15 36 34 67
36 60 41 76 8 30z"/>
<path d="M1278 2223 c7 -3 16 -2 19 1 4 3 -2 6 -13 5 -11 0 -14 -3 -6 -6z"/>
<path d="M1328 2213 c6 -2 18 -2 25 0 6 3 1 5 -13 5 -14 0 -19 -2 -12 -5z"/>
<path d="M1468 2213 c6 -2 18 -2 25 0 6 3 1 5 -13 5 -14 0 -19 -2 -12 -5z"/>
<path d="M1629 2193 c-8 -9 -27 -24 -44 -35 -16 -10 -24 -18 -17 -18 12 0 93
69 81 70 -4 0 -13 -7 -20 -17z"/>
<path d="M522 2188 c-14 -19 -54 -99 -50 -103 2 -2 17 23 34 56 31 59 35 70
16 47z"/>
<path d="M1278 2183 c7 -3 16 -2 19 1 4 3 -2 6 -13 5 -11 0 -14 -3 -6 -6z"/>
<path d="M172 2150 c0 -19 2 -27 5 -17 2 9 2 25 0 35 -3 9 -5 1 -5 -18z"/>
<path d="M306 2165 c-9 -26 -7 -32 5 -12 6 10 9 21 6 23 -2 3 -7 -2 -11 -11z"/>
<path d="M1318 2173 c6 -2 18 -2 25 0 6 3 1 5 -13 5 -14 0 -19 -2 -12 -5z"/>
<path d="M1508 2173 c7 -3 16 -2 19 1 4 3 -2 6 -13 5 -11 0 -14 -3 -6 -6z"/>
<path d="M1220 2160 c8 -5 22 -9 30 -9 10 0 8 3 -5 9 -27 12 -43 12 -25 0z"/>
<path d="M1403 2163 c15 -2 39 -2 55 0 15 2 2 4 -28 4 -30 0 -43 -2 -27 -4z"/>
<path d="M585 2129 c-9 -17 -15 -33 -13 -35 3 -2 12 12 21 31 21 43 13 47 -8
4z"/>
<path d="M252 2130 c0 -14 2 -19 5 -12 2 6 2 18 0 25 -3 6 -5 1 -5 -13z"/>
<path d="M619 2104 c-12 -25 -19 -47 -17 -50 2 -2 14 19 25 46 12 28 19 50 17
50 -3 0 -14 -21 -25 -46z"/>
<path d="M1190 2130 c8 -5 20 -10 25 -10 6 0 3 5 -5 10 -8 5 -19 10 -25 10 -5
0 -3 -5 5 -10z"/>
<path d="M1308 2133 c7 -3 16 -2 19 1 4 3 -2 6 -13 5 -11 0 -14 -3 -6 -6z"/>
<path d="M292 2105 c0 -16 2 -22 5 -12 2 9 2 23 0 30 -3 6 -5 -1 -5 -18z"/>
<path d="M1363 2123 c9 -2 23 -2 30 0 6 3 -1 5 -18 5 -16 0 -22 -2 -12 -5z"/>
<path d="M1478 2123 c6 -2 18 -2 25 0 6 3 1 5 -13 5 -14 0 -19 -2 -12 -5z"/>
<path d="M331 2084 c0 -11 3 -14 6 -6 3 7 2 16 -1 19 -3 4 -6 -2 -5 -13z"/>
<path d="M516 2085 c-9 -26 -7 -32 5 -12 6 10 9 21 6 23 -2 3 -7 -2 -11 -11z"/>
<path d="M250 2064 c0 -16 5 -36 10 -44 6 -10 7 -2 3 25 -7 49 -13 58 -13 19z"/>
<path d="M1338 2083 c7 -3 16 -2 19 1 4 3 -2 6 -13 5 -11 0 -14 -3 -6 -6z"/>
<path d="M1518 2083 c7 -3 16 -2 19 1 4 3 -2 6 -13 5 -11 0 -14 -3 -6 -6z"/>
<path d="M372 2060 c0 -14 2 -19 5 -12 2 6 2 18 0 25 -3 6 -5 1 -5 -13z"/>
<path d="M1413 2073 c15 -2 39 -2 55 0 15 2 2 4 -28 4 -30 0 -43 -2 -27 -4z"/>
<path d="M461 2054 c0 -11 3 -14 6 -6 3 7 2 16 -1 19 -3 4 -6 -2 -5 -13z"/>
<path d="M3813 2059 c-33 -12 -28 -20 7 -13 23 5 31 2 37 -11 5 -14 -3 -27
-30 -49 -49 -41 -48 -56 6 -54 36 1 38 2 10 5 -41 5 -41 16 -3 43 52 37 30
101 -27 79z"/>
<path d="M3940 2063 c-40 -14 -55 -87 -24 -117 22 -23 61 -20 74 4 27 50 -7
127 -50 113z m40 -32 c23 -44 0 -99 -37 -87 -40 13 -35 106 6 106 11 0 25 -9
31 -19z"/>
<path d="M4044 2055 c-18 -14 -17 -14 14 -9 27 6 32 4 32 -13 0 -11 -13 -32
-30 -48 -43 -41 -39 -55 13 -54 l42 2 -38 6 -38 6 35 34 c40 39 46 65 17 81
-25 13 -23 13 -47 -5z"/>
<path d="M4158 2062 c-31 -6 -20 -19 12 -14 23 3 30 0 30 -13 0 -9 -9 -19 -20
-22 -25 -7 -26 -23 -1 -23 25 0 34 -25 15 -41 -12 -10 -20 -10 -35 -1 -26 17
-34 15 -19 -4 29 -34 92 2 75 42 -4 11 -7 31 -6 45 2 27 -16 39 -51 31z"/>
<path d="M413 2010 c0 -30 2 -43 4 -27 2 15 2 39 0 55 -2 15 -4 2 -4 -28z"/>
<path d="M551 2044 c0 -11 3 -14 6 -6 3 7 2 16 -1 19 -3 4 -6 -2 -5 -13z"/>
<path d="M1110 2046 c0 -3 9 -10 20 -16 11 -6 20 -8 20 -6 0 3 -9 10 -20 16
-11 6 -20 8 -20 6z"/>
<path d="M1318 2043 c7 -3 16 -2 19 1 4 3 -2 6 -13 5 -11 0 -14 -3 -6 -6z"/>
<path d="M501 2024 c0 -11 3 -14 6 -6 3 7 2 16 -1 19 -3 4 -6 -2 -5 -13z"/>
<path d="M591 2024 c0 -11 3 -14 6 -6 3 7 2 16 -1 19 -3 4 -6 -2 -5 -13z"/>
<path d="M1220 2030 c8 -5 20 -10 25 -10 6 0 3 5 -5 10 -8 5 -19 10 -25 10 -5
0 -3 -5 5 -10z"/>
<path d="M1363 2033 c9 -2 23 -2 30 0 6 3 -1 5 -18 5 -16 0 -22 -2 -12 -5z"/>
<path d="M1488 2033 c6 -2 18 -2 25 0 6 3 1 5 -13 5 -14 0 -19 -2 -12 -5z"/>
<path d="M2158 2029 c-30 -17 -22 -48 17 -65 37 -15 46 -40 19 -51 -9 -3 -25
-1 -35 5 -26 16 -34 15 -19 -3 18 -22 67 -19 80 5 14 26 6 39 -37 56 -41 18
-38 39 5 39 18 0 32 3 32 7 0 5 -4 8 -9 8 -5 0 -15 2 -23 5 -7 2 -21 0 -30 -6z"/>
<path d="M2030 1965 l0 -65 43 2 42 1 -37 4 c-33 4 -38 8 -38 29 0 20 5 24 30
24 17 0 30 5 30 10 0 6 -13 10 -30 10 -23 0 -30 5 -30 19 0 15 8 21 38 24 l37
4 -42 1 -43 2 0 -65z"/>
<path d="M2262 2023 c26 -4 27 -8 31 -66 l3 -62 2 62 c2 55 4 62 25 66 12 2
-3 4 -33 4 -30 0 -43 -2 -28 -4z"/>
<path d="M372 1995 c0 -16 2 -22 5 -12 2 9 2 23 0 30 -3 6 -5 -1 -5 -18z"/>
<path d="M1298 2003 c7 -3 16 -2 19 1 4 3 -2 6 -13 5 -11 0 -14 -3 -6 -6z"/>
<path d="M1338 1993 c7 -3 16 -2 19 1 4 3 -2 6 -13 5 -11 0 -14 -3 -6 -6z"/>
<path d="M1230 1980 c8 -5 20 -10 25 -10 6 0 3 5 -5 10 -8 5 -19 10 -25 10 -5
0 -3 -5 5 -10z"/>
<path d="M1388 1983 c7 -3 16 -2 19 1 4 3 -2 6 -13 5 -11 0 -14 -3 -6 -6z"/>
<path d="M1428 1983 c7 -3 16 -2 19 1 4 3 -2 6 -13 5 -11 0 -14 -3 -6 -6z"/>
<path d="M1308 1953 c7 -3 16 -2 19 1 4 3 -2 6 -13 5 -11 0 -14 -3 -6 -6z"/>
<path d="M1358 1943 c7 -3 16 -2 19 1 4 3 -2 6 -13 5 -11 0 -14 -3 -6 -6z"/>
<path d="M1488 1943 c7 -3 16 -2 19 1 4 3 -2 6 -13 5 -11 0 -14 -3 -6 -6z"/>
<path d="M2360 1910 c0 -5 5 -10 10 -10 6 0 10 5 10 10 0 6 -4 10 -10 10 -5 0
-10 -4 -10 -10z"/>
</g>
</svg>
